<svg xmlns="http://www.w3.org/2000/svg" viewBox="0 0 150.31 136.95">
  <path d="M34.691 136.45V21.724h115.12V136.45zm.945-.94h113.228V22.662H35.636zm-33.353.939V21.892c-.5.061-.967-.02-1.139-.41a.688.688 0 01-.061-.245v-.045c.027-.626 1.067-1 1.543-1.37.5-.391 1.811-1.583 1.812-2.722 0-.964-.779-1.608-1.154-3.481-.3-1.47 0-2.273-.211-3.413-.236-1.314-1.512-1.695-1.621-3.091-.069-.917 1.657-3.452 3.231-3.452 1.61 0 2.495 1.535 3.6 2.868 1.184 1.422 2.006 1.966 2.625 1.6.5-.291.49-1.1.241-1.71-.31-.756-.941-1.351-.574-2.341a3.365 3.365 0 012.789-1.71 44.414 44.414 0 004.919-.448c2.33-.653 2.931-1.965 4.02-1.276.6.377.691 1.12.39 2.077a5.2 5.2 0 01-1.485 2.458 10.3 10.3 0 01-2.435 1.347c-1.163.526-2.062.962-1.859 2.243.073.444.76.762 1.4.693.875-.1 1.9-.4 2.83-.447a11.626 11.626 0 014.617 1.15 12.708 12.708 0 013.387 2.807c.533.541 2.182 2.565 2.375 2.759.706.7 1.412 1.326 1.836 1.675.2.168.167.216.167.216a.324.324 0 01-.152-.037 8.663 8.663 0 01-1.2-.706c-.685-.451-3.685-3-4.054-3.283-.567-.446-1.826-1.46-2.543-.822-.337.3-.253.986-.156 1.292.108.328.58 1.009.853 1.607a18.492 18.492 0 01.448 2.643c.167.609.887 1.98.319 2.77a1.94 1.94 0 01-.947.635h.182v114.726zm.946-.939h22.1V22.662H3.23zM17.192 15.292c-1.872.452-4.042 1.033-5.3 1.355a37.954 37.954 0 00-3.992.986 16.8 16.8 0 00-2.79 2.472 15.709 15.709 0 01-1.457 1.315 3.27 3.27 0 01-.654.3h20.984a.69.69 0 01-.3-.319c-.477-1.121.908-1.358.445-2.358-.157-.342-.692-.274-.951-.179a4.653 4.653 0 00-1.236.835c-.2.164-1.158.9-2.012 1.549-.724.55-1.73.595-2.071.141-.792-1.057 1.3-1.7 1.776-2.066 1.28-.981 2.324-2.343 1.315-3.646a1.956 1.956 0 00-1.674-.716 9.344 9.344 0 00-2.083.331zM71.82 125.74v-7.421a3.33 3.33 0 011.7-.4c1.436 0 2.292.932 2.292 2.831 0 1.778-.825 2.873-2 2.873a1.6 1.6 0 01-.653-.113v2.235zm1.331-6.813v3.7a1.48 1.48 0 00.331.051c.8 0 .993-1.007.993-1.9 0-.976-.207-1.921-.94-1.921a.93.93 0 00-.384.07zm46.283 1.845c0-1.642.67-2.86 2.034-2.86s2.035 1.218 2.035 2.86-.661 2.867-2.035 2.867-2.034-1.226-2.034-2.867zm1.341-.031c0 1.005.114 1.826.693 1.826.6 0 .7-.821.7-1.816s-.1-1.857-.7-1.857-.693.842-.693 1.847zm-33.092.031c0-1.642.671-2.86 2.036-2.86s2.035 1.218 2.035 2.86-.661 2.867-2.035 2.867-2.036-1.226-2.036-2.867zm1.343-.031c0 1.005.113 1.826.693 1.826.6 0 .7-.821.7-1.816s-.1-1.857-.7-1.857-.696.842-.696 1.847zm40.258 1.167c0-1.415 1.053-1.856 2.542-2.05v-.185a.706.706 0 00-.8-.769 2.614 2.614 0 00-1.178.287l-.279-.871a3.507 3.507 0 011.715-.409c1.043 0 1.828.511 1.828 2.028v3.289a3.311 3.311 0 01-1.828.41c-1.333.001-2.001-.633-2.001-1.73zm1.259-.051c0 .563.28.881.806.881a1.38 1.38 0 00.476-.092v-1.989c-.861.112-1.285.4-1.285 1.2zm-22.226.051c0-1.415 1.054-1.856 2.543-2.05v-.185a.706.706 0 00-.8-.769 2.616 2.616 0 00-1.177.288l-.279-.871a3.5 3.5 0 011.715-.409c1.044 0 1.828.511 1.828 2.028v3.289a3.318 3.318 0 01-1.828.41c-1.336 0-2.005-.634-2.005-1.731zm1.26-.051c0 .563.279.881.807.881a1.383 1.383 0 00.475-.092v-1.989c-.861.112-1.285.4-1.285 1.2zm-33.012.051c0-1.415 1.053-1.856 2.543-2.05v-.185a.706.706 0 00-.8-.769 2.614 2.614 0 00-1.178.287l-.279-.871a3.51 3.51 0 011.715-.409c1.044 0 1.828.511 1.828 2.028v3.289a3.316 3.316 0 01-1.828.41c-1.332.001-2.004-.633-2.004-1.73zm1.26-.051c0 .563.279.881.806.881a1.384 1.384 0 00.476-.092v-1.989c-.861.112-1.285.4-1.285 1.2zm-12.347-1.1c0-1.875.868-2.847 1.922-2.847a1.483 1.483 0 011.156.409l-.268.831a.787.787 0 00-.569-.205c-.6 0-.887.706-.887 1.793 0 1.118.329 1.794.868 1.794a.78.78 0 00.589-.2l.28.9a1.466 1.466 0 01-1.168.41c-1.14-.003-1.926-.996-1.926-2.883zm-4.9 0c0-1.66.763-2.847 2.086-2.847 1.4 0 2.087 1.187 1.983 3.134l-2.738.339c.083.8.434 1.2 1.1 1.2a2.213 2.213 0 001.167-.287l.3.932a2.876 2.876 0 01-1.643.41c-1.471.001-2.25-1.074-2.25-2.879zm1.249-.235l1.508-.185c0-.932-.206-1.465-.7-1.465s-.818.678-.807 1.652zm-12.274 1.386c0-1.415 1.053-1.856 2.542-2.05v-.185a.706.706 0 00-.8-.769 2.611 2.611 0 00-1.178.287l-.279-.871a3.51 3.51 0 011.715-.409c1.044 0 1.828.511 1.828 2.028v3.289a3.316 3.316 0 01-1.828.41c-1.328.001-2-.633-2-1.73zm1.259-.051c0 .563.28.881.807.881a1.389 1.389 0 00.476-.092v-1.989c-.858.112-1.283.4-1.283 1.2zm7.08.164v-3.013h-.5v-.994h.5v-1.2l1.342-.42v1.619h.733v.994h-.733v2.87c0 .513.175.687.454.687a.918.918 0 00.279-.051v.952a1.4 1.4 0 01-.67.143c-.914 0-1.404-.616-1.404-1.587zm78.858 1.516v-5.523h1.342v5.523zm-2.51 0v-8.045h1.351v8.043zm-7.2 0v-3.9c0-.481-.2-.748-.673-.748a1.126 1.126 0 00-.559.1v4.549h-1.331v-5.215a3.969 3.969 0 011.921-.409c1.364 0 1.993.552 1.993 1.72v3.9zm-9.941 0v-5.523h1.343v5.523zm-4.165 0l1.624-4.529h-1.5v-.994h3.173l-1.551 4.519h1.561v1zm-6.653 0l-2.006-4.077a6.67 6.67 0 01-.279-.646h-.02s.02.308.02.636v4.087h-1.187v-7.045h1.249l1.8 3.618c.166.327.31.686.31.686h.022s-.022-.369-.022-.7v-3.604h1.188v7.049zm-8.514 0v-5.523h1.342v5.523zm-2.48 0v-3.9c0-.481-.2-.748-.671-.748a1.123 1.123 0 00-.559.1v4.549h-1.333v-5.215a3.964 3.964 0 011.921-.409c1.364 0 1.993.552 1.993 1.72v3.9zm-9.94 0v-5.523h1.336v5.523zm-4.165 0l1.624-4.529h-1.5v-.994h3.173l-1.55 4.519h1.554v1zm-11.84 0v-5.523h1.341v5.523zm-14.848 0v-5.215a4.377 4.377 0 012.5-.4l-.248 1.085a1.07 1.07 0 00-.919-.021v4.549zm-9.5 0v-6.745a3.787 3.787 0 011.818-.41 2.049 2.049 0 012.325 2.254c0 1.323-.753 2.336-2.583 2.214l-.156-.012v2.7zm1.4-6.127v2.46l.156.01c.941.062 1.179-.562 1.179-1.251s-.2-1.281-.941-1.281a1.083 1.083 0 00-.386.061zm-30.6 6.013v-1.4h6.014v-1.506h1.094v2.908zm3.264-6.16h-.194a.731.731 0 00-.8.819 2.643 2.643 0 00.3 1.21l-.91.286a3.548 3.548 0 01-.428-1.762c0-1.072.536-1.879 2.12-1.879h3.437a3.352 3.352 0 01.427 1.879c0 1.37-.662 2.059-1.809 2.059-1.473-.001-1.934-1.083-2.136-2.613zm2.089 1.318c.589 0 .921-.287.921-.83a1.427 1.427 0 00-.1-.489H19.9c.117.883.418 1.319 1.254 1.319zm115.552-2.189a.712.712 0 01.713-.715.716.716 0 11-.713.715zm-19.652 0a.713.713 0 01.712-.715.716.716 0 11-.712.715zm-19.333 0a.713.713 0 01.713-.715.716.716 0 11-.713.715zm-12.42 0a.713.713 0 01.714-.715.716.716 0 11-.714.715zm-16 0a.712.712 0 01.712-.715.716.716 0 11-.712.715zm-53.431-4.344a3.516 3.516 0 01-.427-1.868c0-1.509.78-2.367 1.959-2.367a1.619 1.619 0 011.617 1.124h.021a1.839 1.839 0 011.842-1.315c1.574 0 2.14 1.186 2.14 2.494a3.594 3.594 0 01-.427 1.931zm3.65-1.613v.213h2.39a1.387 1.387 0 00.085-.51c.012-.713-.417-1.063-1.2-1.063-.878 0-1.275.361-1.275 1.36zm-3.073-.308a1.527 1.527 0 00.075.521h2.168v-.213c0-.839-.289-1.222-1.168-1.222-.742 0-1.074.318-1.074.914zm-1.744-4.471a.751.751 0 01.749-.754.758.758 0 01.75.754.747.747 0 01-.75.733.739.739 0 01-.749-.733zm2.44.679v-1.381h5.773v1.381zm92.456-4.008c0-1.8 1.34-2.361 3.236-2.609v-.235a.9.9 0 00-1.013-.978 3.327 3.327 0 00-1.5.365l-.355-1.108a4.448 4.448 0 012.183-.521c1.328 0 2.326.652 2.326 2.582v4.186a4.226 4.226 0 01-2.326.521c-1.696.001-2.551-.807-2.551-2.202zm1.6-.066c0 .719.356 1.123 1.027 1.123a1.767 1.767 0 00.606-.117v-2.533c-1.09.146-1.63.511-1.63 1.528zm-11.37-.168v-4.72h1.707v4.919c0 .561.276.913.83.913a1.412 1.412 0 00.685-.168v-5.66h1.72v6.611a4.685 4.685 0 01-2.458.547c-1.574-.004-2.48-.682-2.48-2.443zm-14.282-1.227c0-2.114.972-3.625 2.655-3.625 1.789 0 2.657 1.511 2.525 3.991l-3.486.429c.105 1.02.553 1.527 1.394 1.527a2.815 2.815 0 001.486-.365l.382 1.186a3.665 3.665 0 01-2.092.521c-1.861.001-2.86-1.367-2.86-3.663zm1.59-.3l1.92-.235c0-1.188-.263-1.867-.894-1.867s-1.036.863-1.022 2.103zm-19.816.3c0-2.388 1.1-3.625 2.445-3.625a1.891 1.891 0 011.472.521l-.342 1.055a1.011 1.011 0 00-.724-.26c-.762 0-1.131.9-1.131 2.283 0 1.422.421 2.283 1.105 2.283a.991.991 0 00.75-.261l.355 1.147a1.862 1.862 0 01-1.486.521c-1.441.001-2.44-1.262-2.44-3.663zm-23.079.065c0-2.257 1.05-3.638 2.55-3.638a2.178 2.178 0 01.83.131v-3.26h1.708v9.846a4.032 4.032 0 01-2.235.521c-1.811 0-2.849-1.263-2.849-3.599zm1.695-.091c0 1.5.342 2.413 1.21 2.413a.968.968 0 00.474-.077v-4.684a1.958 1.958 0 00-.422-.052c-.982 0-1.258 1.084-1.258 2.401zm50.183 1.631v-3.835h-.63v-1.263h.631v-1.526l1.708-.535v2.061h.933v1.263h-.933v3.656c0 .652.222.874.578.874a1.157 1.157 0 00.355-.065v1.21a1.79 1.79 0 01-.855.184c-1.153-.003-1.783-.785-1.783-2.023zm-3.919 0v-3.835h-.631v-1.263h.631v-1.526l1.708-.535v2.061h.934v1.263h-.934v3.656c0 .652.223.874.58.874a1.15 1.15 0 00.355-.065v1.21a1.793 1.793 0 01-.855.184c-1.153-.003-1.785-.785-1.785-2.023zm-10.072 0v-3.835h-.631v-1.263h.631v-1.526l1.708-.535v2.061h.933v1.263h-.933v3.656c0 .652.223.874.578.874a1.146 1.146 0 00.355-.065v1.21a1.785 1.785 0 01-.854.184c-1.154-.003-1.784-.785-1.784-2.023zm24.052 1.929v-6.637a5.584 5.584 0 013.181-.508l-.315 1.381a1.365 1.365 0 00-1.171-.026v5.791zm-27.549 0v-7.029h1.707v7.029zm-3.156 0v-4.943c0-.626-.316-.977-.83-.977a1.428 1.428 0 00-.737.183v5.738H72.21V94.164h1.695v3.416a2.456 2.456 0 011.251-.325 1.944 1.944 0 012.037 2.2v4.944zm-11.691 0v-6.637a5.586 5.586 0 013.181-.508l-.316 1.381a1.363 1.363 0 00-1.17-.026v5.791zm-2.605 0l-.472-1.9h-2.218l-.473 1.9h-1.569l2.5-8.971h1.617l2.459 8.971zm-1.8-5.672l-.617 2.57h1.7l-.592-2.57c-.118-.535-.222-1.161-.222-1.161h-.027s-.109.601-.241 1.161zM50.76 104.4v-7.029h1.708v7.029zm-33.73-2.928c0-1.444 1.241-2.145 3.278-2.038l.353 2.813c.836-.084 1.253-.445 1.253-1.125a2.248 2.248 0 00-.3-1.2l.974-.308a2.91 2.91 0 01.427 1.688c0 1.507-1.122 2.315-3.008 2.315-1.736 0-2.977-.785-2.977-2.145zm1.006.032c0 .511.706.839 1.724.828l-.194-1.55c-.973 0-1.53.21-1.53.722zm-.578-3.6a4.006 4.006 0 01-.428-1.975c0-1.4.579-2.049 1.8-2.049h4.081v1.39h-4.083c-.5 0-.782.2-.782.691a1.144 1.144 0 00.107.574h4.756v1.369zm61.1-2.592a.907.907 0 01.907-.913.912.912 0 11-.907.913zm-27.866 0a.907.907 0 01.907-.913.912.912 0 11-.907.913zm-33.237-3.1a4 4 0 01-.428-1.975c0-1.4.579-2.049 1.8-2.049h4.081v1.39h-4.08c-.5 0-.782.2-.782.69a1.141 1.141 0 00.107.574h4.756v1.369zm71.193-5.02c0-2.089.854-3.64 2.59-3.64s2.589 1.551 2.589 3.64-.841 3.65-2.589 3.65-2.59-1.565-2.59-3.65zm1.708-.039c0 1.279.145 2.324.882 2.324.764 0 .895-1.045.895-2.311s-.131-2.363-.895-2.363-.882 1.066-.882 2.346zm20.123.023c0-2.113.972-3.624 2.654-3.624 1.788 0 2.657 1.511 2.524 3.99l-3.485.431c.106 1.017.553 1.526 1.394 1.526a2.827 2.827 0 001.486-.365l.382 1.186a3.665 3.665 0 01-2.091.521c-1.866-.004-2.86-1.372-2.86-3.669zm1.589-.3l1.92-.235c0-1.187-.263-1.866-.894-1.866s-1.039.858-1.027 2.098zm-10.885 1.758c0-1.8 1.34-2.362 3.236-2.609v-.233a.9.9 0 00-1.013-.979 3.327 3.327 0 00-1.5.366l-.355-1.108a4.461 4.461 0 012.183-.521c1.329 0 2.326.651 2.326 2.58v4.188a4.222 4.222 0 01-2.326.521c-1.7-.002-2.551-.81-2.551-2.205zm1.6-.065c0 .716.355 1.121 1.026 1.121a1.748 1.748 0 00.606-.118v-2.53c-1.091.144-1.632.509-1.632 1.527zm-28.286.065c0-1.8 1.34-2.362 3.235-2.609v-.233a.9.9 0 00-1.012-.979 3.321 3.321 0 00-1.5.366l-.355-1.108a4.454 4.454 0 012.182-.521c1.328 0 2.326.651 2.326 2.58v4.188a4.222 4.222 0 01-2.326.521c-1.695-.002-2.549-.81-2.549-2.205zm1.6-.065c0 .716.355 1.121 1.027 1.121a1.738 1.738 0 00.6-.118v-2.53c-1.083.144-1.623.509-1.623 1.527zm-18.114-1.397c0-2.113.971-3.624 2.655-3.624 1.787 0 2.656 1.511 2.525 3.99l-3.485.431c.1 1.017.552 1.526 1.394 1.526a2.833 2.833 0 001.486-.365l.381 1.186a3.665 3.665 0 01-2.091.521c-1.865 0-2.865-1.368-2.865-3.665zm1.588-.3l1.92-.235c0-1.187-.263-1.866-.894-1.866s-1.04.862-1.028 2.102zm-5.008 1.905v-3.835h-.632v-1.263h.632v-1.526l1.707-.535v2.061h.934v1.263h-.934v3.65c0 .652.224.874.58.874a1.141 1.141 0 00.355-.066v1.211a1.789 1.789 0 01-.855.183c-1.157.004-1.788-.778-1.788-2.016zm52.932 1.928V80.47h1.72v10.236zm-9.167 0v-4.967c0-.613-.249-.953-.855-.953a1.443 1.443 0 00-.712.131v5.79h-1.695v-6.637a5.044 5.044 0 012.445-.521c1.736 0 2.537.7 2.537 2.19v4.968zm-12.65 0v-7.028h1.705v7.029zm-5.3 0l2.064-5.764h-1.91v-1.262h4.038l-1.973 5.751h1.986v1.276zm-8.732 0v-4.967c0-.613-.25-.953-.855-.953a1.43 1.43 0 00-.711.131v5.79h-1.697v-6.637a5.044 5.044 0 012.445-.521c1.736 0 2.538.7 2.538 2.19v4.968zm-7.246 0v-6.636a5.584 5.584 0 013.181-.508l-.315 1.382a1.362 1.362 0 00-1.171-.026v5.79zm-13.308 0v-4.967c0-.613-.25-.953-.855-.953a1.43 1.43 0 00-.711.131v5.79h-1.697v-6.637a5.037 5.037 0 012.444-.521c1.736 0 2.538.7 2.538 2.19v4.968zm-6.562 0v-8.97h1.8v8.971zm-25.465-6.363h-.194a.731.731 0 00-.8.818 2.647 2.647 0 00.3 1.211l-.91.286a3.55 3.55 0 01-.428-1.763c0-1.072.536-1.877 2.12-1.877h3.43a3.346 3.346 0 01.427 1.877c0 1.372-.662 2.06-1.809 2.06-1.473 0-1.934-1.082-2.136-2.612zm2.089 1.318c.589 0 .921-.287.921-.829a1.418 1.418 0 00-.1-.489H19.9c.117.882.418 1.318 1.254 1.318zm64.455-4.043a.908.908 0 01.907-.912.912.912 0 11-.907.912zm-70.81-.27v-1.341h8.11v1.341zm2.231-4.792c0-1.445 1.241-2.146 3.278-2.039l.353 2.815c.836-.085 1.253-.446 1.253-1.126a2.252 2.252 0 00-.3-1.2l.969-.313a2.912 2.912 0 01.427 1.688c0 1.507-1.122 2.314-3.008 2.314-1.731.004-2.972-.781-2.972-2.14zm1.006.031c0 .51.706.839 1.724.829l-.194-1.551c-.973 0-1.53.213-1.53.722zm59.776.038l.42-1.237a1.7 1.7 0 001.077.392.657.657 0 00.737-.653c0-.509-.223-.718-.856-1.188a2.551 2.551 0 01-1.261-2.037 1.924 1.924 0 011.985-2.048 2.694 2.694 0 011.734.521l-.407 1.082a1.4 1.4 0 00-.932-.338.658.658 0 00-.685.666c0 .455.329.731.96 1.188a2.418 2.418 0 011.261 2.089 2.119 2.119 0 01-2.274 2.083 2.559 2.559 0 01-1.759-.52zm-6.063-3.132c0-2.09.854-3.64 2.59-3.64s2.59 1.551 2.59 3.64-.841 3.65-2.59 3.65-2.59-1.559-2.59-3.65zm1.708-.04c0 1.279.145 2.324.882 2.324.764 0 .9-1.045.9-2.31 0-1.281-.131-2.363-.9-2.363s-.882 1.072-.882 2.352zm16.964 1.485c0-1.8 1.34-2.361 3.236-2.609v-.236a.9.9 0 00-1.014-.977 3.328 3.328 0 00-1.5.365l-.355-1.108a4.457 4.457 0 012.182-.521c1.328 0 2.327.651 2.327 2.581v4.19a4.217 4.217 0 01-2.327.521c-1.694 0-2.548-.808-2.548-2.203zm1.6-.065c0 .717.356 1.122 1.027 1.122a1.775 1.775 0 00.607-.118v-2.528c-1.092.144-1.631.509-1.631 1.527zm-35.7 1.173a1.085 1.085 0 111.092 1.069 1.081 1.081 0 01-1.09-1.066zm26.973-.964v-3.833h-.632v-1.263h.632v-1.526l1.708-.535v2.061h.933v1.263h-.933v3.653c0 .652.223.874.578.874a1.146 1.146 0 00.356-.065v1.21a1.774 1.774 0 01-.854.184c-1.156 0-1.786-.782-1.786-2.02zm3.708 1.928v-6.634a5.583 5.583 0 013.181-.508l-.315 1.381a1.365 1.365 0 00-1.171-.026v5.79zm-17.919.003l-.356-5.1c-.026-.47-.026-1-.026-1h-.028s-.12.534-.238 1l-1.328 5.1h-.855l-1.343-5.1c-.118-.457-.222-1-.222-1h-.027s0 .546-.026.991l-.342 5.109h-1.577l.788-8.97h1.67l1.316 4.995c.131.482.224.992.224.992h.026s.092-.5.222-.979l1.355-5.008h1.657l.8 8.97zm-18.465 0l2.75-7.407h-3.042v-1.564h5.157l-.973 2.75a42.453 42.453 0 00-1.815 6.22zm-4.22 0v-6.92a5.748 5.748 0 01-1.8.339l-.171-1.03a3.172 3.172 0 002.446-1.356h1.248v8.97zm-29.325-8.454a1.748 1.748 0 01.107-.67h-2.676v-1.379h8.079a3.192 3.192 0 01.427 1.8c0 1.466-1.037 2.3-2.955 2.3-1.848.008-2.982-.841-2.982-2.051zm.941-.33c0 .8.889 1.021 1.971 1.021 1.232 0 1.982-.276 1.982-.978a.762.762 0 00-.064-.382h-3.845a1.519 1.519 0 00-.043.338zm-3.318-3.876a.75.75 0 01.749-.753.758.758 0 01.75.753.746.746 0 01-.75.732.738.738 0 01-.749-.732zm2.44.679v-1.379h5.773v1.379zm-1.594-6.807l4.444-.817c.427-.075.921-.128.921-.128v-.021s-.493-.053-.921-.139l-4.444-.85v-1.348l7.367 1.753v1.284l-7.367 1.752zm1.488-5.892c0-1.444 1.241-2.145 3.278-2.039l.353 2.813c.836-.085 1.253-.445 1.253-1.125a2.248 2.248 0 00-.3-1.2l.974-.308a2.908 2.908 0 01.427 1.688c0 1.508-1.122 2.314-3.008 2.314-1.736.001-2.977-.783-2.977-2.143zm1.006.032c0 .509.706.839 1.724.828l-.194-1.55c-.973 0-1.53.212-1.53.722zm-.578-3.6a4.012 4.012 0 01-.428-1.976c0-1.4.579-2.048 1.8-2.048h4.081v1.39h-4.083c-.5 0-.782.2-.782.691a1.144 1.144 0 00.107.574h4.756v1.369zm-.428-7.689c0-1.444 1.241-2.145 3.278-2.038l.353 2.814c.836-.085 1.253-.445 1.253-1.125a2.252 2.252 0 00-.3-1.2l.974-.308a2.912 2.912 0 01.427 1.688c0 1.507-1.122 2.314-3.008 2.314-1.736-.001-2.977-.786-2.977-2.146zm1.006.032c0 .51.706.839 1.724.828l-.194-1.55c-.973 0-1.53.207-1.53.722zm.139-4.62v1.54h-1.038v-3.26l4.723 1.593v-1.6h1.049v3.4zm-3.479-3.823a.75.75 0 01.749-.753.758.758 0 01.75.753.746.746 0 01-.75.732.738.738 0 01-.749-.732zm2.44.679v-1.379h5.773v1.379zm1.929-5.257h-.194a.731.731 0 00-.8.819 2.647 2.647 0 00.3 1.211l-.91.287a3.555 3.555 0 01-.428-1.763c0-1.074.536-1.879 2.12-1.879h3.43a3.357 3.357 0 01.427 1.879c0 1.37-.662 2.06-1.809 2.06-1.473-.001-1.934-1.083-2.136-2.614zm2.089 1.318c.589 0 .921-.287.921-.829a1.428 1.428 0 00-.1-.49H19.9c.117.884.418 1.319 1.254 1.319zm13.818-10.651a2.2 2.2 0 01-1.18-.968 3.038 3.038 0 011.255.074c.637.176 1.192.421 1.1.81-.042.169-.23.228-.454.228a2.133 2.133 0 01-.721-.144z" fill="#fff" stroke="rgba(0,0,0,0)" stroke-miterlimit="10"/>
</svg>
