<svg xmlns="http://www.w3.org/2000/svg" viewBox="0 0 187.727 33.888">
  <path d="M5.874 32.165C1.036 30.8-.727 28.6 1.487 26.679c1.634-1.523 6.33-2.845 11.147-3.123a2.263 2.263 0 01.725.8c-4.064.179-7.968 1.3-9.412 2.54-1.308 1-1.109 2.365.4 3.309 2.214 1.488 6.784 2.175 11.746 2.158 4.959.017 9.529-.67 11.741-2.158 1.516-.944 1.715-2.313.407-3.309-1.443-1.246-5.349-2.361-9.412-2.54a2.245 2.245 0 01.723-.8c4.822.278 9.516 1.6 11.151 3.123 2.212 1.92.446 4.126-4.39 5.486a39.16 39.16 0 01-10.22 1.223 39.2 39.2 0 01-10.219-1.223zm7.532-2.9h0c1.173-5.559 1.018-7.829 1.018-7.829a8.921 8.921 0 00-1.213-4.815c-1.442 1.076-2.178 1.627-4.017 1.674-2.47.068-3.623-1.632-3.623-2.872a2.45 2.45 0 01.574-1.49 3.1 3.1 0 01-2.074-3.044 3.378 3.378 0 012.45-2.732 2.248 2.248 0 01-.227-2.375A3.407 3.407 0 019.558 4.02c1.407.1 2.243.661 3.728 1.756.344-.256 1.042-.756 1.349-.985a14.506 14.506 0 00-2.076-1.343 5.228 5.228 0 00-1.693-.584A6.857 6.857 0 0116.09.5h.014a6.864 6.864 0 015.226 2.364 5.236 5.236 0 00-1.695.584 14.566 14.566 0 00-2.076 1.343h0c.307.229 1.005.729 1.349.985 1.483-1.1 2.319-1.66 3.729-1.756a3.4 3.4 0 013.264 1.76 2.245 2.245 0 01-.229 2.375 3.376 3.376 0 012.452 2.732 3.093 3.093 0 01-2.075 3.044 2.45 2.45 0 01.574 1.49c0 1.24-1.152 2.94-3.625 2.872-1.839-.047-2.572-.6-4.015-1.674a8.93 8.93 0 00-1.213 4.815s-.156 2.269 1.02 7.829h-.006c0 .3-1.2.535-2.688.535s-2.69-.239-2.69-.535zm1.378-13.552a10.245 10.245 0 011.283 3.238l.037.152.035-.152a10.182 10.182 0 011.286-3.238c-.466-.337-.886-.649-1.321-.96-.435.309-.855.621-1.32.958zm6.28-1a3.948 3.948 0 00-.941.574c1.274.916 1.753 1.3 2.745 1.348 1.3.061 2.067-.558 2.019-1.242-.024-.384-.649-1.126-1.928-1.126a4.8 4.8 0 00-1.895.444zm-13.749.68c-.043.684.724 1.3 2.024 1.242.988-.047 1.473-.432 2.742-1.348a3.932 3.932 0 00-.939-.574 4.788 4.788 0 00-1.894-.445c-1.278-.002-1.906.74-1.933 1.123zM17.548 13.4c.417.308.8.584 1.187.862a6.059 6.059 0 011.679-1.12c-.4-.262-.8-.553-1.22-.884a.123.123 0 00-.041-.029c-.573.414-1.125.811-1.605 1.171zm-4.534-1.141a15.044 15.044 0 01-1.223.884 6.012 6.012 0 011.679 1.12c.388-.278.775-.554 1.188-.862-.48-.357-1.034-.754-1.6-1.17a.1.1 0 00-.045.025zm7.618-1.1a6.12 6.12 0 003.463 1.561 2.056 2.056 0 002.241-1.479c.03-.665-.468-1.583-2.275-1.685h-.16c-1.141-.009-1.989.678-3.27 1.597zM8.147 9.551c-1.809.1-2.3 1.02-2.276 1.685a2.054 2.054 0 002.24 1.479 6.114 6.114 0 003.463-1.561c-1.281-.92-2.132-1.607-3.267-1.607q-.079 0-.16.004zm7.889.509c-.489.368-1 .715-1.544 1.127.323.228.586.42.819.59s.488.352.752.543l.04.031.04-.031c.267-.191.522-.382.756-.543s.491-.363.817-.59c-.548-.411-1.055-.759-1.546-1.127l-.067-.049zm1.546-1.12c.627.464 1.161.845 1.6 1.168.273-.193.559-.4.738-.529.25-.185.419-.318.635-.471-.176-.109-.317-.226-.485-.347-.314-.224-.708-.519-1.131-.817-.489.351-.934.692-1.357.995zm-5.452-.18c-.167.122-.3.238-.481.347.214.152.383.284.632.471.18.134.468.337.739.527.445-.321.977-.7 1.606-1.167-.424-.3-.874-.643-1.365-1-.419.303-.814.598-1.131.822zm-4.2-1.769a1.558 1.558 0 001.679 1 4.233 4.233 0 002.183-1.123 4.161 4.161 0 00-2.17-1.062h-.161c-1.167-.006-1.629.706-1.526 1.185zm14.656-1.185a4.187 4.187 0 00-2.18 1.065 4.258 4.258 0 002.184 1.123 1.559 1.559 0 001.679-1c.1-.479-.359-1.189-1.523-1.189q-.078-.005-.16.001zm-6.528.085c-.56.408-.965.7-1.3.959.423.3.8.6 1.336.984l.013.008.015-.008c.534-.383.911-.682 1.334-.984-.339-.255-.742-.552-1.3-.959l-.045-.033zm-1.79-3.363s.352.185.857.523c.635.422.956.672.973.688.016-.016.338-.266.972-.688.5-.338.856-.523.856-.523a2.624 2.624 0 00-1.828-.5 2.63 2.63 0 00-1.83.5zm117.324 20.387a3.538 3.538 0 013.723-3.616 3.676 3.676 0 012.583.923l-.432.793a2.932 2.932 0 00-2.108-.853 2.6 2.6 0 00-2.712 2.732 2.6 2.6 0 002.712 2.733 2.938 2.938 0 002.171-.853l.444.72a3.474 3.474 0 01-2.658 1.036 3.52 3.52 0 01-3.723-3.615zm-69.024 1.078a2.439 2.439 0 012.542-2.5 2.245 2.245 0 012.373 2.3 4.077 4.077 0 01-.032.427h-3.859a1.518 1.518 0 001.613 1.534 2.83 2.83 0 001.656-.559l.423.559a3 3 0 01-2.206.762 2.383 2.383 0 01-2.51-2.523zm1.033-.417h2.921a1.418 1.418 0 00-1.445-1.382 1.447 1.447 0 00-1.476 1.382zm-9.3 2.447a2.444 2.444 0 01-.253-1.442v-2.2h-.737V21.6h.737v-1.447h1.013V21.6h1.2v.782h-1.2v2.184a1.827 1.827 0 00.127.883.53.53 0 00.516.244 1.254 1.254 0 00.517-.112l.064.783a2.618 2.618 0 01-.917.163 1.194 1.194 0 01-1.068-.504zm-12.442-2.01a2.656 2.656 0 112.657 2.509 2.51 2.51 0 01-2.658-2.509zm1.022-.03a1.631 1.631 0 101.635-1.7 1.6 1.6 0 00-1.636 1.701zm117.986 1.044c0-.944.8-1.421 1.961-1.472l1.339-.05v-.193c0-.732-.518-1.1-1.245-1.1a3.153 3.153 0 00-1.508.418l-.306-.652a3.988 3.988 0 011.877-.487 2.216 2.216 0 011.655.55 1.949 1.949 0 01.537 1.563v2.8h-.981l-.01-.609a2.091 2.091 0 01-1.593.722 1.57 1.57 0 01-1.728-1.489zm2.14-.863c-.813.041-1.14.376-1.14.833s.371.833 1.034.833a1.584 1.584 0 001.277-.7v-1.036zm-8.353-.173a2.354 2.354 0 012.416-2.5 2.052 2.052 0 011.751.842h.02V19.4h1v7.007h-.971v-.772h-.02a2.064 2.064 0 01-1.763.885 2.38 2.38 0 01-2.434-2.528zm1.035-.01a1.6 1.6 0 103.184 0 1.6 1.6 0 10-3.184 0zm-6.306 1.046c0-.944.8-1.421 1.961-1.472l1.34-.05v-.193c0-.732-.516-1.1-1.244-1.1a3.154 3.154 0 00-1.508.418l-.307-.652a3.993 3.993 0 011.879-.487 2.219 2.219 0 011.655.55 1.955 1.955 0 01.537 1.563v2.8h-.98l-.012-.609a2.088 2.088 0 01-1.591.722 1.571 1.571 0 01-1.732-1.489zm2.14-.863c-.811.041-1.139.376-1.139.833s.37.833 1.032.833a1.579 1.579 0 001.276-.7v-1.036zm-13.033.863c0-.944.8-1.421 1.962-1.472l1.339-.05v-.193c0-.732-.518-1.1-1.246-1.1a3.16 3.16 0 00-1.507.418l-.305-.652a3.985 3.985 0 011.877-.487 2.219 2.219 0 011.656.55 1.952 1.952 0 01.536 1.563v2.8h-.98l-.01-.609a2.1 2.1 0 01-1.593.722 1.571 1.571 0 01-1.73-1.489zm2.14-.863c-.811.041-1.139.376-1.139.833s.37.833 1.034.833a1.584 1.584 0 001.276-.7v-1.036zm-16.154 1.8a2.381 2.381 0 01-.369-1.493v-2.9h1v2.854c0 .661.148 1.281 1.044 1.281s1.244-.732 1.244-1.544v-2.587h1.013v4.834h-.981l-.011-.69a1.761 1.761 0 01-1.549.8 1.653 1.653 0 01-1.392-.556zm-6.96-1.971a2.354 2.354 0 012.416-2.5 2.048 2.048 0 011.75.842h.022V19.4h1v7.007h-.969v-.772h-.02a2.065 2.065 0 01-1.763.885 2.379 2.379 0 01-2.437-2.528zm1.033-.01a1.6 1.6 0 103.185 0 1.6 1.6 0 10-3.185 0zm-34.786 1.675l.484-.569a2.091 2.091 0 001.478.691c.464 0 .958-.162.958-.691s-.79-.69-1.128-.8a3.881 3.881 0 01-.685-.253 1.251 1.251 0 01-.79-1.158c0-.895.8-1.382 1.687-1.382a2.233 2.233 0 011.708.63l-.421.6a1.878 1.878 0 00-1.265-.517c-.485 0-.8.2-.8.6s.483.57.98.721c.274.093.464.152.675.234a1.9 1.9 0 01.58.346 1.17 1.17 0 01.4.893 1.36 1.36 0 01-.518 1.1 2.2 2.2 0 01-1.392.427 2.431 2.431 0 01-1.951-.872zm-2.341.365a2.439 2.439 0 01-.254-1.442v-2.2h-.738V21.6h.738v-1.447h1.012V21.6h1.2v.782h-1.2v2.183a1.829 1.829 0 00.127.884.533.533 0 00.517.244 1.251 1.251 0 00.517-.113l.064.783a2.618 2.618 0 01-.917.163 1.19 1.19 0 01-1.066-.503zm-5.831.387l-.749-1.829h-3.121l-.749 1.829h-1.075l2.963-7.029h.9l2.973 7.029zm-3.586-2.651h2.552l-1.275-3.149zM60.523 26.41v-2.732c0-.689-.116-1.382-1.034-1.382s-1.307.763-1.307 1.727v2.387h-1V19.4h1v2.945h.021a1.721 1.721 0 011.54-.853c1.444 0 1.792.893 1.792 2.041v2.877zm86.918 0v-2.69c0-.814-.148-1.424-1.044-1.424-.938 0-1.287.763-1.287 1.688v2.426h-1.013v-4.826h1.013l-.01.762h.031a1.7 1.7 0 011.53-.853c1.424 0 1.792.9 1.792 2.061v2.855zm-70.006 0v-4.825h1.012l-.011.741h.032a1.307 1.307 0 011.234-.832 1.438 1.438 0 01.527.082l-.064.9h-.041a1.4 1.4 0 00-.549-.1 1.061 1.061 0 00-.823.406 2.084 2.084 0 00-.305 1.219v2.406zm-29.219 0v-4.825h1.013l-.012.741h.033a1.306 1.306 0 011.234-.832 1.443 1.443 0 01.527.082l-.063.9h-.042a1.4 1.4 0 00-.549-.1 1.063 1.063 0 00-.822.406 2.081 2.081 0 00-.306 1.219v2.406zm-8.7 0v-4.033h-.718V21.6h.718v-.488a1.982 1.982 0 01.337-1.289 1.538 1.538 0 011.2-.529 2.561 2.561 0 01.865.113l-.063.72a2.129 2.129 0 00-.57-.092c-.663 0-.77.479-.77 1.026v.539h1.197v.782h-1.193v4.032zm78.03-14.918a3.538 3.538 0 013.722-3.616 3.678 3.678 0 012.585.924l-.433.792a2.935 2.935 0 00-2.109-.853 2.6 2.6 0 00-2.71 2.732 2.6 2.6 0 002.71 2.731 2.937 2.937 0 002.173-.852l.443.721a3.477 3.477 0 01-2.659 1.036 3.519 3.519 0 01-3.721-3.616zm-41.851 0a3.537 3.537 0 013.722-3.616 3.679 3.679 0 012.584.924l-.432.792a2.935 2.935 0 00-2.11-.853 2.6 2.6 0 00-2.711 2.731 2.6 2.6 0 002.713 2.73 2.93 2.93 0 002.172-.853l.444.721a3.476 3.476 0 01-2.658 1.036 3.519 3.519 0 01-3.722-3.613zm-36.676 0a3.538 3.538 0 013.723-3.617 3.67 3.67 0 012.582.924l-.431.792a2.933 2.933 0 00-2.11-.853 2.6 2.6 0 00-2.71 2.731 2.6 2.6 0 002.71 2.732 2.934 2.934 0 002.174-.853l.442.721a3.472 3.472 0 01-2.657 1.036 3.521 3.521 0 01-3.721-3.614zM181.026 14.6a2.442 2.442 0 01-.253-1.442v-2.2h-.738v-.788h.738V8.728h1.012v1.442h1.2v.782h-1.2v2.184a1.81 1.81 0 00.128.884.53.53 0 00.516.244 1.246 1.246 0 00.517-.113l.064.782a2.629 2.629 0 01-.919.163 1.192 1.192 0 01-1.065-.496zm-40.514-2.031a2.441 2.441 0 012.543-2.5 2.245 2.245 0 012.372 2.3 4.078 4.078 0 01-.031.427h-3.86a1.518 1.518 0 001.613 1.534 2.826 2.826 0 001.655-.559l.423.559a3 3 0 01-2.2.761 2.383 2.383 0 01-2.514-2.524zm1.035-.416h2.921a1.421 1.421 0 00-1.445-1.382 1.447 1.447 0 00-1.475 1.38zM136 14.235l.484-.569a2.091 2.091 0 001.478.689c.464 0 .959-.162.959-.689s-.79-.69-1.129-.8a3.882 3.882 0 01-.686-.255 1.244 1.244 0 01-.79-1.157c0-.895.8-1.382 1.687-1.382a2.236 2.236 0 011.708.629l-.421.6a1.866 1.866 0 00-1.264-.518c-.487 0-.8.2-.8.6s.485.568.98.721c.274.091.463.152.674.233a1.911 1.911 0 01.581.346 1.173 1.173 0 01.4.895 1.349 1.349 0 01-.516 1.1 2.2 2.2 0 01-1.392.427 2.431 2.431 0 01-1.952-.872zm-11.578-1.646a2.656 2.656 0 112.658 2.509 2.51 2.51 0 01-2.657-2.511zm1.023-.03a1.631 1.631 0 103.258 0 1.63 1.63 0 10-3.258 0zm57.92 1.675l.485-.569a2.091 2.091 0 001.477.69c.464 0 .96-.162.96-.69s-.792-.689-1.129-.8a3.847 3.847 0 01-.687-.254 1.247 1.247 0 01-.788-1.158c0-.894.8-1.381 1.687-1.381a2.238 2.238 0 011.708.629l-.423.6a1.873 1.873 0 00-1.264-.517c-.486 0-.8.2-.8.6s.487.568.979.721c.276.092.467.152.676.233a1.918 1.918 0 01.581.347 1.169 1.169 0 01.4.894 1.355 1.355 0 01-.516 1.1 2.206 2.206 0 01-1.392.426 2.433 2.433 0 01-1.953-.873zm-11.937-.63c0-.945.8-1.422 1.963-1.472l1.338-.052v-.192c0-.733-.515-1.1-1.243-1.1a3.183 3.183 0 00-1.509.417l-.305-.65a3.967 3.967 0 011.877-.487 2.224 2.224 0 011.656.548 1.953 1.953 0 01.536 1.563v2.8h-.979l-.012-.61a2.085 2.085 0 01-1.59.721 1.572 1.572 0 01-1.731-1.49zm2.142-.862c-.811.04-1.139.375-1.139.832s.369.833 1.032.833a1.582 1.582 0 001.276-.7v-1.038zm-8.668 1.492l.485-.569a2.085 2.085 0 001.477.69c.464 0 .959-.162.959-.69s-.791-.689-1.129-.8a3.822 3.822 0 01-.685-.254 1.246 1.246 0 01-.791-1.158c0-.894.8-1.381 1.687-1.381a2.236 2.236 0 011.708.629l-.42.6a1.876 1.876 0 00-1.266-.517c-.485 0-.8.2-.8.6s.485.568.981.721c.274.092.466.152.674.233a1.913 1.913 0 01.58.347 1.172 1.172 0 01.4.894 1.348 1.348 0 01-.517 1.1 2.2 2.2 0 01-1.391.426 2.433 2.433 0 01-1.95-.873zm-5.431-1.666a2.439 2.439 0 012.542-2.5 2.245 2.245 0 012.373 2.3 3.964 3.964 0 01-.032.427h-3.86a1.521 1.521 0 001.615 1.535 2.836 2.836 0 001.656-.559l.421.559a3.009 3.009 0 01-2.2.76 2.381 2.381 0 01-2.513-2.524zm1.033-.416h2.922a1.42 1.42 0 00-1.445-1.382 1.449 1.449 0 00-1.475 1.381zm-7.329.416a2.355 2.355 0 012.415-2.5 2.05 2.05 0 011.751.842h.02V7.976h1v7.007h-.971v-.772h-.02a2.06 2.06 0 01-1.762.884 2.379 2.379 0 01-2.431-2.529zm1.034-.01a1.6 1.6 0 103.184 0 1.6 1.6 0 10-3.184 0zm-54.262.022a2.7 2.7 0 014.5-1.82l-.358.711a2.007 2.007 0 00-1.5-.588 1.592 1.592 0 00-1.623 1.665 1.6 1.6 0 001.633 1.716 2.122 2.122 0 001.52-.609l.358.711a2.533 2.533 0 01-2 .731 2.458 2.458 0 01-2.527-2.519zm-10.69 1.956a2.376 2.376 0 01-.368-1.493V10.15h1V13c0 .66.148 1.28 1.044 1.28s1.244-.732 1.244-1.543V10.15h1.013v4.834h-.98l-.012-.69a1.761 1.761 0 01-1.55.8 1.649 1.649 0 01-1.391-.558zm-6.686-1.949a2.656 2.656 0 112.657 2.513 2.51 2.51 0 01-2.657-2.513zm1.023-.031a1.631 1.631 0 103.259 0 1.631 1.631 0 10-3.259 0zM68.292 13.6c0-.945.8-1.422 1.964-1.472l1.337-.052v-.192c0-.733-.516-1.1-1.244-1.1a3.171 3.171 0 00-1.508.417l-.3-.65a3.966 3.966 0 011.876-.487 2.221 2.221 0 011.656.548 1.953 1.953 0 01.536 1.563v2.8h-.98l-.011-.61a2.09 2.09 0 01-1.593.721 1.57 1.57 0 01-1.733-1.486zm2.141-.862c-.812.04-1.138.375-1.138.832s.369.833 1.033.833a1.586 1.586 0 001.275-.7v-1.034zm-8.352-.174a2.355 2.355 0 012.417-2.5 2.044 2.044 0 011.75.842h.022v-2.93h1v7.007h-.969v-.772h-.02a2.064 2.064 0 01-1.763.884 2.379 2.379 0 01-2.437-2.529zm1.034-.01a1.6 1.6 0 103.186 0 1.6 1.6 0 10-3.186 0zM56.81 13.6c0-.945.8-1.422 1.962-1.472l1.337-.052v-.192c0-.733-.516-1.1-1.243-1.1a3.162 3.162 0 00-1.507.417l-.306-.65a3.966 3.966 0 011.876-.487 2.221 2.221 0 011.656.548 1.95 1.95 0 01.538 1.563v2.8h-.981l-.011-.61a2.09 2.09 0 01-1.589.735 1.571 1.571 0 01-1.732-1.5zm2.142-.862c-.814.04-1.139.375-1.139.832s.368.833 1.033.833a1.591 1.591 0 001.276-.7v-1.034zm-13.035.862c0-.945.8-1.422 1.961-1.472l1.339-.052v-.192c0-.733-.516-1.1-1.244-1.1a3.171 3.171 0 00-1.508.417l-.305-.65a3.964 3.964 0 011.882-.482 2.226 2.226 0 011.656.548 1.957 1.957 0 01.537 1.563v2.8h-.981l-.012-.61a2.086 2.086 0 01-1.6.73 1.57 1.57 0 01-1.725-1.5zm2.14-.862c-.811.04-1.139.375-1.139.832s.37.833 1.033.833a1.586 1.586 0 001.276-.7v-1.034zm100.915 2.247v-7.01h1v7.009zm-2.5 0V10.16h1.013v4.825zm-38.635 0v-7.01h1v7.009zm-2.5 0V10.16h1.012v4.825zm71.7 0V10.16h1.013l-.009.741h.032a1.3 1.3 0 011.231-.832 1.443 1.443 0 01.528.082l-.064.9h-.041a1.4 1.4 0 00-.549-.1 1.062 1.062 0 00-.823.407 2.076 2.076 0 00-.306 1.218v2.408zm-42.916 0v-2.693c0-.812-.147-1.421-1.043-1.421-.939 0-1.288.762-1.288 1.686v2.427h-1.012V10.16h1.012l-.01.761h.031a1.7 1.7 0 011.531-.853c1.423 0 1.792.9 1.792 2.062v2.854zm-36.2 0v-2.693c0-.812-.147-1.421-1.045-1.421-.937 0-1.285.762-1.285 1.685v2.428H94.58V10.16h1.014l-.011.76h.032a1.7 1.7 0 011.53-.852c1.423 0 1.791.9 1.791 2.062v2.854zm-43.054 0v-2.693c0-.812-.148-1.421-1.045-1.421-.938 0-1.286.762-1.286 1.685v2.428h-1.008V10.16h1.014l-.01.76h.031a1.7 1.7 0 011.53-.852c1.424 0 1.793.9 1.793 2.062v2.854zm91.445-6.408a.662.662 0 11.664.6.611.611 0 01-.661-.601zm-41.135 0a.661.661 0 11.664.6.612.612 0 01-.661-.601z" fill="#fff" stroke="rgba(0,0,0,0)" stroke-miterlimit="10"/>
</svg>
